<?xml version="1.0" encoding="utf-8"?>
<!-- Generator: Adobe Illustrator 26.3.1, SVG Export Plug-In . SVG Version: 6.00 Build 0)  -->
<svg version="1.1" xmlns="http://www.w3.org/2000/svg" xmlns:xlink="http://www.w3.org/1999/xlink" x="0px" y="0px"
	 viewBox="0 0 1000 1000" style="enable-background:new 0 0 1000 1000;" xml:space="preserve">
<style type="text/css">
	.st0{fill:#7F7F7F;}
	.st1{fill:url(#SVGID_1_);}
	.st2{fill:url(#SVGID_00000133530494974024423760000010811743478722356876_);}
	.st3{fill:url(#SVGID_00000029024758344002557030000010195474708227839112_);}
	.st4{fill:url(#SVGID_00000173139741386597907280000005813204746731545253_);}
	.st5{fill:url(#SVGID_00000167378206724285907550000015961438353771222177_);}
	.st6{fill:url(#SVGID_00000131352134385755803430000017722915244801597831_);}
	.st7{fill:#FFFFFF;}
	.st8{fill:url(#SVGID_00000108305792416535553700000008597400819656315288_);}
	.st9{fill:url(#SVGID_00000179639106989110591100000004632144285534396588_);}
	.st10{fill:url(#SVGID_00000004524924779985792740000001599772873602978992_);}
	.st11{fill:url(#SVGID_00000098197606014552625460000013232971276214189240_);}
	.st12{fill:url(#SVGID_00000017498380623214932290000014972340199856022407_);}
	.st13{fill:url(#SVGID_00000023239932037072888060000009565194307650027438_);}
	.st14{fill:url(#SVGID_00000136408231335708513390000014517289204237910446_);}
	.st15{fill:url(#SVGID_00000064351249726901233480000004479378202175757225_);}
	.st16{fill:url(#SVGID_00000044154977332932866060000013648687062588149938_);}
	.st17{fill:url(#SVGID_00000140699170232384011040000007595056596116996994_);}
	.st18{fill:url(#SVGID_00000072244559545170947700000005477255598605429383_);}
	.st19{fill:url(#SVGID_00000069377873831030575940000006584464442945142168_);}
</style>
<g id="Layer_1">
</g>
<g id="Layer_2">
</g>
<g id="Layer_3">
</g>
<g id="Layer_4">
</g>
<g id="Layer_5">
</g>
<g id="Layer_6">
	<g>
		<linearGradient id="SVGID_1_" gradientUnits="userSpaceOnUse" x1="714.692" y1="495.8838" x2="396.1835" y2="177.3753">
			<stop  offset="0" style="stop-color:#D94196"/>
			<stop  offset="1" style="stop-color:#7C70B2"/>
		</linearGradient>
		<path class="st1" d="M632.75,362.21c6.96-15.35,20.5-25.07,31.05-37.6c1.1-1.3,2.16-2.65,3.17-4.04c0.27-0.36,0.57-0.7,0.84-1.06
			c8.36-11.68,12.05-24.61,12.05-37.32c0.01-0.34,0.04-0.68,0.04-1.02c0-0.54-0.05-1.07-0.06-1.61c0-0.1-0.01-0.2-0.01-0.3
			c-0.52-18.41-8.51-34.57-20.59-46.42c-11.85-12.08-28.01-20.07-46.42-20.59c-0.1,0-0.19-0.01-0.29-0.01
			c-0.54-0.01-1.07-0.06-1.62-0.06c-0.35,0-0.68,0.03-1.03,0.04c-12.72,0-25.64,3.7-37.32,12.05c-0.37,0.26-0.7,0.57-1.06,0.84
			c-1.39,1.01-2.73,2.07-4.04,3.17c-12.53,10.55-22.25,24.09-37.6,31.05c-0.09,0.04-0.19,0.08-0.28,0.13
			c-18.71,8.4-40.43,8.4-59.14,0c-0.09-0.04-0.19-0.08-0.28-0.13c-17.37-7.88-27.52-24.19-42.7-35.05
			c-44.59-31.9-107.33,3.58-107.33,56.9c0,53.31,62.74,88.8,107.33,56.9c15.19-10.86,25.33-27.17,42.7-35.05
			c0.09-0.04,0.19-0.08,0.28-0.13c18.71-8.4,40.43-8.4,59.14,0c0.09,0.04,0.19,0.08,0.28,0.13c13.26,6.01,22.32,16.93,32.61,26.59
			c9.67,10.29,20.58,19.35,26.59,32.61c0.04,0.09,0.08,0.19,0.13,0.28c8.4,18.71,8.4,40.43,0,59.14c-0.04,0.09-0.08,0.19-0.13,0.28
			c-7.88,17.37-24.19,27.52-35.05,42.7c-31.9,44.59,3.58,107.33,56.9,107.33c53.31,0,88.8-62.74,56.9-107.33
			c-10.86-15.19-27.17-25.33-35.05-42.7c-0.04-0.09-0.08-0.19-0.13-0.28c-8.4-18.71-8.4-40.43,0-59.14
			C632.66,362.4,632.7,362.31,632.75,362.21z"/>
		<g>
			
				<linearGradient id="SVGID_00000001654257952185973540000011894929280233487263_" gradientUnits="userSpaceOnUse" x1="-2096.7136" y1="-1795.7223" x2="-2304.3215" y2="-1588.1144" gradientTransform="matrix(-4.489700e-11 1 -1 -4.489700e-11 -1299.851 2592.585)">
				<stop  offset="0" style="stop-color:#D94196"/>
				<stop  offset="1" style="stop-color:#7C70B2"/>
			</linearGradient>
			<path style="fill:url(#SVGID_00000001654257952185973540000011894929280233487263_);" d="M212.18,392.07
				c0,53.31,62.74,88.8,107.33,56.9c15.19-10.86,25.33-27.17,42.7-35.05c0.09-0.04,0.19-0.08,0.28-0.13c18.71-8.4,40.43-8.4,59.14,0
				c0.09,0.04,0.19,0.08,0.28,0.13c17.37,7.88,27.52,24.19,42.7,35.05c44.59,31.9,107.33-3.58,107.33-56.9
				c0-53.31-62.74-88.8-107.33-56.9c-15.19,10.86-25.33,27.17-42.7,35.05c-0.09,0.04-0.19,0.08-0.28,0.13
				c-18.71,8.4-40.43,8.4-59.14,0c-0.09-0.04-0.19-0.08-0.28-0.13c-17.37-7.88-27.52-24.19-42.7-35.05
				C274.92,303.27,212.18,338.75,212.18,392.07z"/>
		</g>
		
			<linearGradient id="SVGID_00000122686401073521590030000008958112798159711658_" gradientUnits="userSpaceOnUse" x1="767.6143" y1="440.8485" x2="670.0521" y2="343.2864">
			<stop  offset="0" style="stop-color:#D94196"/>
			<stop  offset="1" style="stop-color:#7C70B2"/>
		</linearGradient>
		<circle style="fill:url(#SVGID_00000122686401073521590030000008958112798159711658_);" cx="718.83" cy="392.07" r="68.99"/>
		
			<linearGradient id="SVGID_00000182486009698958876190000009167387718159375532_" gradientUnits="userSpaceOnUse" x1="-1761.2069" y1="-433.6734" x2="-1442.6982" y2="-115.1649" gradientTransform="matrix(-1 0 0 -1 -1157.3904 388.9513)">
			<stop  offset="0" style="stop-color:#D94196"/>
			<stop  offset="1" style="stop-color:#7C70B2"/>
		</linearGradient>
		<path style="fill:url(#SVGID_00000182486009698958876190000009167387718159375532_);" d="M367.25,637.79
			c-6.96,15.35-20.5,25.07-31.05,37.6c-1.1,1.3-2.16,2.65-3.17,4.04c-0.27,0.36-0.57,0.7-0.84,1.06
			c-8.36,11.68-12.05,24.61-12.05,37.32c-0.01,0.34-0.04,0.68-0.04,1.02c0,0.54,0.05,1.07,0.06,1.61c0,0.1,0.01,0.2,0.01,0.3
			c0.52,18.41,8.51,34.57,20.59,46.42c11.85,12.08,28.01,20.07,46.42,20.59c0.1,0,0.19,0.01,0.29,0.01
			c0.54,0.01,1.07,0.06,1.62,0.06c0.35,0,0.68-0.03,1.03-0.04c12.72,0,25.64-3.7,37.32-12.05c0.37-0.26,0.7-0.57,1.06-0.84
			c1.39-1.01,2.73-2.07,4.04-3.17c12.53-10.55,22.25-24.09,37.6-31.05c0.09-0.04,0.19-0.08,0.28-0.13c18.71-8.4,40.43-8.4,59.14,0
			c0.09,0.04,0.19,0.08,0.28,0.13c17.37,7.88,27.52,24.19,42.7,35.05c44.59,31.9,107.33-3.58,107.33-56.9
			c0-53.31-62.74-88.8-107.33-56.9c-15.19,10.86-25.33,27.17-42.7,35.05c-0.09,0.04-0.19,0.08-0.28,0.13
			c-18.71,8.4-40.43,8.4-59.14,0c-0.09-0.04-0.19-0.08-0.28-0.13c-13.26-6.01-22.32-16.93-32.61-26.59
			c-9.67-10.29-20.58-19.35-26.59-32.61c-0.04-0.09-0.08-0.19-0.13-0.28c-8.4-18.71-8.4-40.43,0-59.14
			c0.04-0.09,0.08-0.19,0.13-0.28c7.88-17.37,24.19-27.52,35.05-42.7c31.9-44.59-3.58-107.33-56.9-107.33s-88.8,62.74-56.9,107.33
			c10.86,15.19,27.17,25.33,35.05,42.7c0.04,0.09,0.08,0.19,0.13,0.28c8.4,18.71,8.4,40.43,0,59.14
			C367.34,637.6,367.3,637.69,367.25,637.79z"/>
		<g>
			
				<linearGradient id="SVGID_00000159456577011278230910000013909794643793087621_" gradientUnits="userSpaceOnUse" x1="-2915.3701" y1="569.2759" x2="-2707.7622" y2="361.668" gradientTransform="matrix(1.346900e-10 -1 1 1.346900e-10 142.4606 -2203.6338)">
				<stop  offset="0" style="stop-color:#D94196"/>
				<stop  offset="1" style="stop-color:#7C70B2"/>
			</linearGradient>
			<path style="fill:url(#SVGID_00000159456577011278230910000013909794643793087621_);" d="M787.82,607.93
				c0-53.31-62.74-88.8-107.33-56.9c-15.19,10.86-25.33,27.17-42.7,35.05c-0.09,0.04-0.19,0.08-0.28,0.13
				c-18.71,8.4-40.43,8.4-59.14,0c-0.09-0.04-0.19-0.08-0.28-0.13c-17.37-7.88-27.52-24.19-42.7-35.05
				c-44.59-31.9-107.33,3.58-107.33,56.9c0,53.31,62.74,88.8,107.33,56.9c15.19-10.86,25.33-27.17,42.7-35.05
				c0.09-0.04,0.19-0.08,0.28-0.13c18.71-8.4,40.43-8.4,59.14,0c0.09,0.04,0.19,0.08,0.28,0.13c17.37,7.88,27.52,24.19,42.7,35.05
				C725.08,696.73,787.82,661.25,787.82,607.93z"/>
		</g>
		
			<linearGradient id="SVGID_00000029034824695218924620000002486173540311683262_" gradientUnits="userSpaceOnUse" x1="-1487.3383" y1="-267.7623" x2="-1389.7761" y2="-170.2001" gradientTransform="matrix(-1 0 0 -1 -1157.3904 388.9513)">
			<stop  offset="0" style="stop-color:#D94196"/>
			<stop  offset="1" style="stop-color:#7C70B2"/>
		</linearGradient>
		<circle style="fill:url(#SVGID_00000029034824695218924620000002486173540311683262_);" cx="281.17" cy="607.93" r="68.99"/>
	</g>
</g>
<g id="Layer_7">
</g>
<g id="Layer_8">
</g>
<g id="Layer_9">
</g>
</svg>
