<svg xmlns="http://www.w3.org/2000/svg" xmlns:xlink="http://www.w3.org/1999/xlink" version="1.1" x="0px" y="0px" viewBox="0 0 300 375" enable-background="new 0 0 300 300" xml:space="preserve"><path d="M275,44H41c-2.8,0-5,2.2-5,5v68.5l-8.4-5.1c-1.8-1.1-4-0.9-5.7,0.3c-1.6,1.3-2.3,3.4-1.7,5.4L36,169.9c0,0,0,0.1,0,0.1v47  c0,2.8,2.2,5,5,5h10.9l8.8,28.9c0.4,1.3,1.3,2.3,2.4,3c0.7,0.4,1.5,0.6,2.3,0.6c0.5,0,1-0.1,1.5-0.2L172.4,222H275c2.8,0,5-2.2,5-5  V49C280,46.2,277.8,44,275,44z M46,212v-9.4l2.9,9.4H46z M61,217.4c0-0.1,0-0.2,0-0.4c0-1.2-0.4-2.2-1.1-3.1l-26.3-86.2l138.3,84  L68.8,243.2L61,217.4z M270,212h-81.1c-0.3-1.2-1.1-2.4-2.2-3L46,123.6V54h224V212z M51,76c0-2.8,2.2-5,5-5h184v-9c0-2.8,2.2-5,5-5  s5,2.2,5,5v9h11c2.8,0,5,2.2,5,5s-2.2,5-5,5h-11v123c0,2.8-2.2,5-5,5s-5-2.2-5-5V81H56C53.2,81,51,78.8,51,76z M124.6,197.6  l-53.8-32.3c-1.8-1.1-4-0.9-5.7,0.3c-1.6,1.3-2.3,3.4-1.7,5.4L77,215.6c0.7,2.2,2.6,3.5,4.8,3.5c0.5,0,1-0.1,1.5-0.2l40.2-12.3  c1.9-0.6,3.3-2.2,3.5-4.2C127.2,200.6,126.2,198.7,124.6,197.6z M85.1,207.9l-8.3-27.3l33,19.8L85.1,207.9z M226.9,177.1  c-0.1-0.2-0.2-0.3-0.2-0.5c0,0,0,0,0,0c-0.2-0.3-0.3-0.5-0.5-0.7c0,0,0-0.1-0.1-0.1l-44.9-51.3c0.8-0.2,1.6-0.5,2.2-1.1  c2.1-1.8,2.3-5,0.5-7.1l-23.5-26.8c-1.8-2.1-5-2.3-7.1-0.5c-0.7,0.6-1.1,1.3-1.4,2.1l0-0.1c-1.9-2.2-4.6-3.4-7.5-3.4  c-2.4,0-4.8,0.9-6.6,2.5l-3.2,2.8c-2,1.8-3.2,4.2-3.4,6.9c-0.2,2.7,0.7,5.2,2.5,7.3l3.1,3.6c0,0,0,0,0,0l71,81.1c0,0,0,0,0.1,0.1  c0.2,0.2,0.4,0.4,0.6,0.6c0,0,0,0,0,0c0.2,0.1,0.3,0.2,0.5,0.3l19.6,11.5c0.8,0.5,1.7,0.7,2.5,0.7c1.2,0,2.4-0.4,3.3-1.2  c1.6-1.4,2.2-3.7,1.3-5.7L226.9,177.1z M212,181.4l-64.4-73.6l1.6-1.4l1.6-1.4l64.4,73.6l-1.6,1.4L212,181.4z M220,187.6l0.2-0.1  l0.2-0.1l0.3,0.6L220,187.6z"/><text x="0" y="315" fill="#000000" font-size="5px" font-weight="bold" font-family="'Helvetica Neue', Helvetica, Arial-Unicode, Arial, Sans-serif">Created by Seb Cornelius</text><text x="0" y="320" fill="#000000" font-size="5px" font-weight="bold" font-family="'Helvetica Neue', Helvetica, Arial-Unicode, Arial, Sans-serif">from the Noun Project</text></svg>